<svg width="749" height="94" viewBox="0 0 749 94" fill="none" xmlns="http://www.w3.org/2000/svg">
<g clip-path="url(#clip0_123_89)">
<path d="M202.844 47.19H177.439V94.38H202.844V47.19Z" fill="#FB3640"/>
<path d="M108.57 47.19V57.438C109.478 82.0427 123.452 94.345 150.493 94.345H189.908V74.136H151.317C149.063 74.3226 146.794 74.0609 144.642 73.3659C142.489 72.671 140.495 71.5565 138.776 70.087C135.8 66.521 134.266 61.9707 134.476 57.331C134.297 54.715 134.189 51.347 134.189 47.231C134.116 43.9079 134.212 40.5833 134.476 37.27C134.363 34.9406 134.716 32.612 135.516 30.4214C136.316 28.2307 137.546 26.2221 139.134 24.514C142.72 21.5145 147.337 20.0356 151.998 20.393H190.123V0H151.317C138.024 0 127.67 3.153 120.323 9.5C116.536 12.9458 113.538 17.1691 111.534 21.8809C109.53 26.5927 108.568 31.6818 108.713 36.8C108.642 39.415 108.57 43 108.57 47.19Z" fill="#FB3640"/>
<path d="M-1.90735e-06 47.19H25.405L25.405 3.8147e-06H-1.90735e-06L-1.90735e-06 47.19Z" fill="#FB3640"/>
<path d="M94.13 36.8C93.736 25.083 89.902 15.838 82.413 9.5C74.924 3.162 64.819 0 51.526 0H12.684V20.209H50.844C55.5054 19.8516 60.1219 21.3305 63.708 24.33C65.2892 26.0427 66.515 28.0519 67.3145 30.2415C68.1141 32.431 68.4715 34.7574 68.366 37.086C68.545 39.594 68.653 42.886 68.653 47.047C68.653 51.208 68.653 54.536 68.366 57.147C68.6261 61.8542 67.0746 66.4825 64.03 70.082C62.3181 71.5522 60.3309 72.6673 58.1841 73.3624C56.0373 74.0575 53.7737 74.3188 51.525 74.131H12.684V94.345H52.099C79.1163 94.345 93.0907 82.0427 94.022 57.438V47.19C94.022 42.891 94.201 39.415 94.13 36.8Z" fill="#FB3640"/>
<path d="M242.294 76.715C242.091 76.5215 241.929 76.2888 241.818 76.031C241.707 75.7732 241.65 75.4956 241.649 75.215V19.241C241.634 18.9448 241.68 18.6487 241.785 18.3713C241.89 18.0939 242.051 17.8412 242.258 17.629C242.436 17.4329 242.652 17.2748 242.892 17.164C243.133 17.0531 243.393 16.9919 243.658 16.984H266.337C273.473 16.5471 280.525 18.711 286.188 23.075C288.642 25.2625 290.594 27.9542 291.911 30.9659C293.228 33.9776 293.879 37.2383 293.82 40.525V53.747C293.247 69.489 284.301 77.36 266.982 77.36H243.656C243.137 77.323 242.651 77.0928 242.294 76.715ZM266.48 64.497C267.922 64.6178 269.373 64.452 270.751 64.0092C272.128 63.5664 273.405 62.8553 274.506 61.917C276.418 59.6363 277.403 56.72 277.265 53.747C277.265 52.063 277.444 49.913 277.444 47.261C277.444 44.609 277.444 42.495 277.265 40.883C277.338 39.3918 277.113 37.901 276.602 36.4981C276.091 35.0951 275.306 33.8083 274.291 32.713C271.974 30.8288 269.029 29.8938 266.05 30.097H257.988V64.497H266.48Z" fill="#FB3640"/>
<path d="M308.153 76.716C307.95 76.5225 307.788 76.2898 307.677 76.032C307.566 75.7742 307.509 75.4966 307.508 75.216V19.243C307.503 18.6419 307.735 18.063 308.153 17.631C308.354 17.4163 308.599 17.2475 308.871 17.1362C309.143 17.0248 309.436 16.9736 309.73 16.986H350.256C350.549 16.9782 350.841 17.0315 351.112 17.1426C351.384 17.2536 351.629 17.42 351.833 17.631C352.05 17.8397 352.222 18.0901 352.338 18.3672C352.455 18.6443 352.515 18.9423 352.513 19.243V27.771C352.518 28.0619 352.46 28.3503 352.342 28.6164C352.224 28.8825 352.05 29.1198 351.832 29.312C351.407 29.7148 350.84 29.9337 350.255 29.921H322.988V40.884H348.357C348.655 40.8798 348.951 40.9346 349.228 41.0453C349.504 41.156 349.756 41.3204 349.969 41.529C350.178 41.734 350.343 41.9797 350.454 42.2509C350.565 42.5221 350.62 42.8131 350.614 43.106V50.953C350.622 51.2515 350.569 51.5485 350.458 51.8258C350.347 52.103 350.181 52.3546 349.969 52.565C349.756 52.7736 349.504 52.938 349.228 53.0487C348.951 53.1594 348.655 53.2142 348.357 53.21H322.988V64.497H350.937C351.235 64.4923 351.53 64.5474 351.806 64.6592C352.082 64.7709 352.333 64.937 352.543 65.1475C352.754 65.3581 352.92 65.6088 353.032 65.8847C353.144 66.1607 353.199 66.4563 353.194 66.754V75.243C353.206 75.5314 353.154 75.8189 353.043 76.0852C352.931 76.3515 352.763 76.59 352.549 76.784C352.337 76.9912 352.084 77.1523 351.807 77.2571C351.529 77.3619 351.233 77.4082 350.937 77.393H309.55C309.016 77.3492 308.518 77.1078 308.153 76.716Z" fill="#FB3640"/>
<path d="M367.388 76.716C367.185 76.5225 367.023 76.2898 366.912 76.032C366.801 75.7742 366.744 75.4966 366.743 75.216V19.243C366.729 18.6469 366.947 18.0687 367.352 17.631C367.546 17.4172 367.785 17.2486 368.051 17.1372C368.317 17.0257 368.605 16.9741 368.893 16.986H409.593C409.891 16.9811 410.186 17.0362 410.463 17.1479C410.739 17.2596 410.989 17.4256 411.2 17.6362C411.411 17.8467 411.577 18.0975 411.689 18.3735C411.801 18.6495 411.856 18.9452 411.851 19.243V27.771C411.863 28.0594 411.811 28.3469 411.7 28.6132C411.588 28.8795 411.42 29.118 411.206 29.312C410.768 29.7169 410.19 29.9353 409.594 29.921H382.361V40.884H407.73C408.023 40.8791 408.314 40.9333 408.586 41.0432C408.858 41.1532 409.105 41.3167 409.312 41.524C409.519 41.7313 409.683 41.9782 409.793 42.25C409.903 42.5217 409.957 42.8129 409.952 43.106V50.953C409.96 51.2515 409.907 51.5485 409.796 51.8258C409.685 52.103 409.519 52.3546 409.307 52.565C409.102 52.7743 408.856 52.9395 408.585 53.0504C408.314 53.1613 408.023 53.2156 407.73 53.21H382.361V64.497H410.31C410.603 64.4914 410.894 64.5457 411.165 64.6566C411.436 64.7675 411.682 64.9327 411.887 65.142C412.099 65.3524 412.265 65.604 412.376 65.8812C412.487 66.1585 412.54 66.4555 412.532 66.754V75.243C412.544 75.5314 412.492 75.8189 412.381 76.0852C412.269 76.3515 412.101 76.59 411.887 76.784C411.679 76.9868 411.432 77.1453 411.161 77.25C410.89 77.3547 410.6 77.4033 410.31 77.393H369.068C368.755 77.4143 368.441 77.3644 368.15 77.2472C367.859 77.1299 367.599 76.9483 367.388 76.716Z" fill="#FB3640"/>
<path d="M426.756 76.716C426.553 76.5225 426.391 76.2898 426.28 76.032C426.169 75.7742 426.112 75.4966 426.111 75.216V19.242C426.087 18.6509 426.292 18.0733 426.684 17.63C426.888 17.419 427.133 17.2526 427.405 17.1416C427.676 17.0306 427.968 16.9772 428.261 16.985H452.661C458.935 16.6139 465.146 18.4102 470.254 22.073C472.401 23.8885 474.091 26.1838 475.186 28.7733C476.282 31.3629 476.752 34.1739 476.56 36.979C476.76 39.7661 476.285 42.5604 475.175 45.1248C474.065 47.6892 472.353 49.9481 470.184 51.71C465.019 55.2339 458.832 56.9462 452.59 56.579H442.772V75.247C442.768 75.8065 442.551 76.3434 442.163 76.747C441.959 76.958 441.714 77.1244 441.442 77.2354C441.171 77.3465 440.879 77.3998 440.586 77.392H428.19C427.641 77.365 427.126 77.122 426.756 76.716ZM452.232 44.252C454.253 44.3601 456.239 43.6939 457.786 42.389C458.493 41.6703 459.04 40.8105 459.392 39.8659C459.744 38.9212 459.892 37.913 459.828 36.907C459.923 34.9207 459.257 32.973 457.965 31.461C457.211 30.7308 456.309 30.1706 455.32 29.8184C454.331 29.4662 453.278 29.33 452.232 29.419H442.557V44.252H452.232Z" fill="#FB3640"/>
<path d="M495.159 72.129C492.74 69.9353 490.817 67.25 489.519 64.253C488.221 61.2561 487.578 58.0164 487.634 54.751C487.634 53.1383 487.634 50.5227 487.634 46.904V38.984C487.582 35.7889 488.232 32.6212 489.538 29.705C490.845 26.7887 492.776 24.1949 495.195 22.107C500.792 17.8665 507.711 15.7464 514.723 16.123C519.634 16.0349 524.511 16.9492 529.056 18.81C532.719 20.2504 535.952 22.6069 538.444 25.654C540.451 28.0792 541.641 31.0764 541.844 34.218C541.854 34.4703 541.812 34.7219 541.72 34.9571C541.629 35.1923 541.489 35.4059 541.31 35.5844C541.132 35.7629 540.918 35.9025 540.683 35.9944C540.448 36.0862 540.196 36.1283 539.944 36.118H526.727C526.266 36.1539 525.805 36.0541 525.401 35.831C525.038 35.5901 524.722 35.2851 524.469 34.931C523.754 33.2791 522.616 31.8453 521.169 30.775C519.256 29.5317 516.997 28.9294 514.719 29.055C508.054 29.055 504.619 32.638 504.399 39.41V54.32C504.614 61.486 507.982 65.285 514.899 65.285C517.767 65.4431 520.595 64.5516 522.854 62.777C523.879 61.8092 524.675 60.6245 525.183 59.3095C525.692 57.9946 525.9 56.5827 525.792 55.177V53.747H518.092C517.799 53.7526 517.508 53.6983 517.237 53.5874C516.966 53.4765 516.72 53.3113 516.515 53.102C516.303 52.8916 516.137 52.64 516.026 52.3628C515.915 52.0855 515.862 51.7885 515.87 51.49V44.682C515.862 44.3835 515.915 44.0865 516.026 43.8092C516.137 43.532 516.303 43.2804 516.515 43.07C516.72 42.8607 516.966 42.6955 517.237 42.5846C517.508 42.4737 517.799 42.4194 518.092 42.425H540.021C540.314 42.4194 540.605 42.4737 540.876 42.5846C541.147 42.6955 541.393 42.8607 541.598 43.07C541.81 43.2804 541.976 43.532 542.087 43.8092C542.198 44.0865 542.251 44.3835 542.243 44.682V54.682C542.317 59.1588 541.071 63.5582 538.66 67.331C536.323 70.9135 532.985 73.7303 529.06 75.431C524.53 77.3547 519.648 78.3069 514.727 78.226C507.681 78.6484 500.724 76.4823 495.163 72.135L495.159 72.129Z" fill="#FB3640"/>
<path d="M556.395 76.715C556.191 76.5204 556.028 76.2863 555.917 76.0269C555.806 75.7674 555.749 75.4881 555.75 75.206V19.241C555.736 18.6449 555.954 18.0667 556.359 17.629C556.56 17.4143 556.805 17.2455 557.077 17.1342C557.349 17.0228 557.642 16.9716 557.936 16.984H581.657C588.045 16.5908 594.373 18.4134 599.573 22.144C601.695 23.9154 603.378 26.1537 604.49 28.6838C605.603 31.2139 606.115 33.967 605.987 36.728C606.099 40.3558 605.126 43.9344 603.192 47.006C601.257 49.9404 598.539 52.2739 595.345 53.742L606.99 74.78C607.157 75.0766 607.255 75.4071 607.277 75.747C607.263 76.218 607.07 76.666 606.739 77.001C606.576 77.1795 606.377 77.3202 606.154 77.413C605.931 77.5058 605.69 77.5485 605.449 77.538H593.302C592.533 77.5859 591.77 77.3849 591.125 76.9649C590.479 76.5449 589.986 75.9281 589.719 75.206L580.219 56.506H571.95V75.246C571.962 75.5344 571.91 75.8219 571.799 76.0882C571.687 76.3545 571.519 76.593 571.305 76.787C571.093 76.9942 570.84 77.1553 570.563 77.2601C570.285 77.3649 569.989 77.4111 569.693 77.396H557.9C557.617 77.3873 557.338 77.3227 557.079 77.2058C556.821 77.0889 556.589 76.9221 556.395 76.715ZM581.477 43.642C583.536 43.7936 585.571 43.1238 587.138 41.779C587.801 41.1081 588.316 40.3052 588.65 39.4225C588.983 38.5399 589.127 37.597 589.073 36.655C589.121 35.692 588.975 34.7292 588.642 33.8242C588.31 32.9192 587.798 32.0906 587.138 31.388C586.379 30.6909 585.485 30.1564 584.511 29.8175C583.538 29.4785 582.505 29.3422 581.477 29.417H571.91V43.75L581.477 43.642Z" fill="#FB3640"/>
<path d="M617.344 76.823C617.013 76.4879 616.821 76.0399 616.807 75.569C616.762 75.3082 616.762 75.0418 616.807 74.781L636.907 19.493C637.101 18.7131 637.571 18.0298 638.229 17.5689C638.888 17.108 639.691 16.9006 640.49 16.985H653.963C654.762 16.9011 655.564 17.1087 656.222 17.5696C656.88 18.0304 657.35 18.7135 657.544 19.493L677.644 74.781C677.692 75.0415 677.692 75.3085 677.644 75.569C677.617 76.044 677.412 76.4915 677.071 76.823C676.74 77.1603 676.289 77.3533 675.817 77.36H664.608C663.979 77.4002 663.354 77.2371 662.825 76.895C662.296 76.5529 661.891 76.0498 661.67 75.46L658.553 67.111H635.978L632.861 75.46C632.64 76.0498 632.235 76.5529 631.706 76.895C631.177 77.2371 630.552 77.4002 629.923 77.36H618.707C618.455 77.3716 618.203 77.3298 617.968 77.2372C617.733 77.1447 617.52 77.0035 617.344 76.823ZM639.488 54.177H654.824L647.156 32.248L639.488 54.177Z" fill="#FB3640"/>
<path d="M689.296 76.752C689.082 76.5581 688.914 76.3195 688.802 76.0532C688.691 75.787 688.639 75.4994 688.651 75.211V19.242C688.646 18.9443 688.701 18.6487 688.813 18.3727C688.925 18.0968 689.091 17.8461 689.302 17.6355C689.512 17.425 689.763 17.2589 690.039 17.1472C690.315 17.0354 690.61 16.9803 690.908 16.985H700.654C701.304 16.9547 701.948 17.1194 702.503 17.458C703.059 17.7966 703.5 18.2935 703.771 18.885L718.605 45.436L733.513 18.884C733.784 18.2925 734.225 17.7956 734.781 17.457C735.336 17.1184 735.98 16.9537 736.63 16.984H746.376C746.669 16.9762 746.961 17.0295 747.232 17.1406C747.504 17.2516 747.749 17.418 747.953 17.629C748.165 17.8395 748.332 18.0912 748.443 18.3687C748.554 18.6461 748.606 18.9433 748.598 19.242V75.242C748.61 75.5304 748.558 75.8179 748.447 76.0842C748.335 76.3505 748.167 76.589 747.953 76.783C747.747 76.9893 747.501 77.1502 747.229 77.2551C746.958 77.36 746.667 77.4067 746.376 77.392H735.412C734.847 77.3745 734.31 77.1424 733.91 76.743C733.511 76.3436 733.278 75.8068 733.26 75.242V43.823L723.8 60.915C723.521 61.4865 723.096 61.9736 722.567 62.3263C722.038 62.679 721.425 62.8846 720.79 62.922H716.132C715.491 62.8909 714.87 62.6882 714.334 62.3351C713.799 61.9821 713.367 61.4916 713.086 60.915L703.88 43.858V75.242C703.892 75.5304 703.84 75.8179 703.729 76.0842C703.617 76.3505 703.449 76.589 703.235 76.783C703.023 76.9902 702.77 77.1513 702.493 77.2561C702.215 77.3609 701.919 77.4072 701.623 77.392H690.873C690.58 77.3983 690.29 77.3447 690.018 77.2347C689.747 77.1246 689.501 76.9604 689.296 76.752Z" fill="#FB3640"/>
</g>
<defs>
<clipPath id="clip0_123_89">
<rect width="749" height="94" fill="white"/>
</clipPath>
</defs>
</svg>
